/* XPM */
static char *ssplot[] = {
/* columns rows colors chars-per-pixel */
"32 32 118 2 ",
"   c #292910",
".  c #343415",
"X  c #40401A",
"o  c #4E4E1F",
"O  c #545422",
"+  c #67672A",
"@  c #777730",
"#  c #7B7B31",
"$  c #9C7E34",
"%  c #95753D",
"&  c #9C7F3C",
"*  c #947443",
"=  c #9A7B46",
"-  c #97774F",
";  c #9A7C49",
":  c #9A7C54",
">  c #9C7E5A",
",  c #4CA61E",
"<  c #59AC24",
"1  c #62B027",
"2  c #66B229",
"3  c #6DB62C",
"4  c #72B92E",
"5  c #7CBD32",
"6  c #838335",
"7  c #898937",
"8  c #8E8E39",
"9  c #9E8234",
"0  c #9F823C",
"q  c #94943B",
"w  c #98983D",
"e  c #A28635",
"r  c #A58A35",
"t  c #A1843C",
"y  c #AB9236",
"u  c #AF9738",
"i  c #B39C3A",
"p  c #B9A43C",
"a  c #BFAC3F",
"s  c #81C034",
"d  c #89C437",
"f  c #8DC538",
"g  c #94C93B",
"h  c #9DCE3F",
"j  c #9F9F40",
"k  c #A6A643",
"l  c #ACAC45",
"z  c #B0B047",
"x  c #B5B549",
"c  c #BBBB4B",
"v  c #9F8263",
"b  c #A2866B",
"n  c #A4886E",
"m  c #A58A73",
"M  c #AB927E",
"N  c #C7B643",
"B  c #C8B844",
"V  c #A3D141",
"C  c #ACD645",
"Z  c #B1D847",
"A  c #B6DA49",
"S  c #BBDD4B",
"D  c #C3C34E",
"F  c #D6CA4C",
"G  c #C7C750",
"H  c #CBCB52",
"J  c #D4D455",
"K  c #DED450",
"L  c #D9D957",
"P  c #DBDB58",
"I  c #E0D652",
"U  c #E3DB53",
"Y  c #C3E14E",
"T  c #C6E250",
"R  c #CBE552",
"E  c #D7EB56",
"W  c #DFEE5A",
"Q  c #E7E156",
"!  c #E9E257",
"~  c #E6E65D",
"^  c #EBE558",
"/  c #E0EF5A",
"(  c #EBEA5E",
")  c #F2EE5D",
"_  c #E3F15B",
"`  c #EBF45E",
"'  c #F4F15F",
"]  c #EFF760",
"[  c #F5F462",
"{  c #F9F763",
"}  c #F5F962",
"|  c #FEFE66",
" . c #FFFF68",
".. c #AF9784",
"X. c #B39C8B",
"o. c #B8A394",
"O. c #BBA699",
"+. c #BEAA9D",
"@. c #C1AEA3",
"#. c #C3B1A5",
"$. c #C9B9AF",
"%. c #CCBDB5",
"&. c #CFC1B9",
"*. c #D2C4BD",
"=. c #DACFCB",
"-. c #DDD2CE",
";. c #E1D8D5",
":. c #E4DBD9",
">. c #E7E0DD",
",. c #EBE5E3",
"<. c #EEE8E7",
"1. c #EFEAE9",
"2. c #F2EEEC",
"3. c #F6F3F2",
"4. c #F8F6F6",
"5. c #F9F8F7",
"6. c #F9F7F8",
"7. c #FFFFFF",
/* pixels */
"7.7.7.7.7.7.7.7.5.<.:.;.;.;.;.;.;.;.;.;.;.:.,.5.7.7.7.7.7.7.7.7.",
"7.7.7.7.7.7.,.+.v = & & & & 0 0 & & & & & 0 = > o.>.7.7.7.7.7.7.",
"7.7.7.7.5.#.* i K ) { { { { { { | { { { { { ' I p % o.3.7.7.7.7.",
"7.7.7.4.M e Q  . .| | | | | | | | | | | | | |  .| ( y b 2.7.7.7.",
"7.7.7...y [  .|  .| | | | | | | | | | | | | | | | | { p m 4.7.7.",
"7.7.%.$ [ | L 6 G  .| | | | | | | | | | | | | | | | | { r +.7.7.",
"7.3.- K  .[ + . X l { | | | | | | | | | | | | | | | |  .Q * <.7.",
"7.*.e | | L 8 @ q q [ | | | | ` E { | | | | | | | | | | | u #.7.",
"7...N | | | { # D  .| | | | } 3 < f { | | | | | | | | |  .F n 7.",
"5.b K | | |  .# c  .| | | | { 3 Y 3 A  .| | | | | | | | | ^ : 3.",
"5.: Q  .| | | 6 c  .| | | | | s A T 4 { | | | | | | | | | ) ; 1.",
"5.: Q | | | | # x | | | | |  .g h } 2 W | | | | | | | | | ) = <.",
"6.: ^ | | |  .6 x  .| | | |  .V g  .5 A  .| | | | | | | | ) ; <.",
"4.: Q  .| |  .6 x  .|  . . . .C d  .V f  .| | | | | | | | ) = 1.",
"4.: ! | | |  .6 x  .| R A {  .S 5  .R 4 {  .| | | | | | | ) = 1.",
"4.: !  .| | | 6 x  .] < < g  .T 4  ._ 2 } | } | | | | | | ) = <.",
"4.: Q  .| |  .6 l  ._ 2 / 2 S R 4 | ] 2 W g Z  .| | | | | ) ; <.",
"4.: ^ | | |  .7 z  ._ 2 } T 3 A 5 { { s 1 3 ` | | | | | | ) = 1.",
"4.: ^ | | |  .7 l  .} 3 W  .s , g  . ._ V _  .| | | | | | ) = 1.",
"4.: ! | | |  .8 l  .| W } | _ h _ |  . . .| | | | | | |  .) = <.",
"4.: !  .| |  .8 k  .| | | |  . .| | | | | | | | ( [ | | | ) ; <.",
"6.: Q | | |  .8 k  .{ |  .{ {  .| | | |  .| | | k w | | | ) = 2.",
"7.v I  .| |  .w o @ @ @ @ @ @ @ # # # # # # # 6 +   l | | ^ : 3.",
"7...B  .| |  .( G G G G G G G G D D D c D c c l o O H | | F b 7.",
"7.&.r | | | | | |  .| | L G ( P G ~ H G ~  . .l 7 ( | | | i @.7.",
"7.2.: I | | | | | | | [ q c J q c H w c j |  .{ { | | | ^ * ,.7.",
"7.7.$.9 { | | | | | | { G l x H l l 6 l H | | | | | | | y O.7.7.",
"7.7.5.M u { | | | | | ' x l x x x l x {  .| | | |  .| p b 3.7.7.",
"7.7.7.3.m r ^ | | | | | [ ` | [ ( { {  .| | | | | ) u v 1.7.7.7.",
"7.7.7.7.4.+.% p U ' { | | | { | { | { | | { ' U a % X.3.7.7.7.7.",
"7.7.7.7.7.7.,.o.> = & t t t 9 0 t 0 t t e 0 = : X.;.7.7.7.7.7.7.",
"7.7.7.7.7.7.7.7.4.>.-.=.=.=.=.=.-.=.-.-.-.-.>.3.7.7.7.7.7.7.7.7."
};
